<svg width="88" height="26" viewBox="0 0 88 26" fill="none" xmlns="http://www.w3.org/2000/svg">
<g clip-path="url(#clip0_1620_353)">
<path d="M25.2346 13.0271C25.2346 19.7938 19.7279 25.2852 12.9425 25.2852C6.15704 25.2852 0.650391 19.7938 0.650391 13.0271C0.650391 6.26046 6.15704 0.769043 12.9425 0.769043C19.7279 0.769043 25.2346 6.26046 25.2346 13.0271Z" fill="white"/>
<path d="M12.9425 0.769173C9.1409 0.769173 5.74818 2.48687 3.48636 5.19354C3.89523 7.22354 4.47808 9.03667 5.22622 10.5895C4.97394 11.2402 4.79126 11.9082 4.69556 12.5328L4.10401 15.7253C2.9731 14.3546 1.86829 12.5415 0.989663 10.1558C0.772181 11.0753 0.650391 12.0383 0.650391 13.0186C0.650391 16.107 1.7987 18.9264 3.68644 21.0779L5.25232 12.6195C5.33061 12.125 5.4698 11.5959 5.64379 11.084C5.66988 11.0146 5.68728 10.9452 5.71338 10.8758C5.74818 10.7891 5.78298 10.7023 5.81777 10.6069C5.84387 10.5462 5.86997 10.4854 5.89607 10.4247C5.93086 10.338 5.97436 10.2425 6.01786 10.1558C6.04395 10.095 6.07875 10.0256 6.11355 9.96492C6.15705 9.87816 6.19184 9.80009 6.23534 9.71334C6.27884 9.62658 6.33103 9.53983 6.38323 9.45308C6.41802 9.39235 6.45282 9.33162 6.48762 9.2709C7.65332 7.30162 9.70636 5.4885 12.9947 5.4885H13.0034C16.0829 5.4885 18.7797 7.345 19.8845 10.1991C21.0067 13.114 20.2151 16.2631 17.8141 18.4233C15.5784 20.4446 12.0378 20.8263 8.81033 19.3949C8.67984 19.3342 8.54065 19.2734 8.40146 19.204L9.11481 15.3349C9.50627 15.5951 9.90644 15.8207 10.324 16.0029C12.2118 16.8357 14.1691 16.7056 15.3174 15.6732C16.5614 14.5454 16.9703 13.0012 16.4048 11.5351C15.9699 10.416 14.8476 9.21017 12.9947 9.21017C9.68026 9.21017 9.00171 12.8104 8.94082 13.2181V13.2702L7.00088 23.7412C8.76683 24.7215 10.7938 25.2767 12.9599 25.2767C19.7453 25.2767 25.252 19.7853 25.252 13.0186C25.252 6.25192 19.7453 0.760498 12.9599 0.760498L12.9425 0.769173Z" fill="#E83330"/>
<path d="M46.8006 7.96082C45.4174 7.90877 44.1299 8.37723 42.9555 9.37489C41.7985 10.3639 41.0852 11.5697 40.8329 12.9578C40.5893 14.3111 40.859 15.5083 41.6332 16.4972C42.4075 17.4949 43.4775 18.0241 44.8172 18.0675C44.8694 18.0675 44.9216 18.0675 44.9825 18.0675C46.1221 18.0675 47.2269 17.6944 48.1403 17.0264L48.0707 17.4255C48.0359 17.625 48.1751 17.8246 48.3752 17.8593C48.3926 17.8593 48.4187 17.8593 48.4448 17.8593H49.6366C49.8193 17.8593 49.9759 17.7291 50.002 17.547L50.7936 13.0705C51.072 11.7259 50.8197 10.5287 50.0368 9.53104C49.2538 8.53339 48.1577 7.99552 46.8006 7.95215V7.96082ZM47.5227 15.222C46.7658 15.89 45.9655 16.1936 45.0782 16.1589C44.3387 16.1589 43.6515 15.7859 43.2252 15.1873C42.7642 14.5627 42.625 13.8513 42.7902 13.0011C42.9555 12.1249 43.4253 11.3442 44.1212 10.7803C44.7737 10.1904 45.6175 9.86937 46.4962 9.8607C47.2965 9.8607 47.9141 10.147 48.3752 10.7282C48.845 11.3181 49.0102 12.0122 48.8798 12.8623C48.7319 13.7906 48.2534 14.6234 47.5314 15.222H47.5227Z" fill="#182229"/>
<path d="M72.8104 7.96082C71.4272 7.90877 70.1397 8.37723 68.9653 9.37489C67.8083 10.3639 67.095 11.5697 66.8427 12.9578C66.5991 14.3111 66.8688 15.5083 67.643 16.4972C68.4173 17.4949 69.4873 18.0241 70.827 18.0675C70.8791 18.0675 70.9313 18.0675 70.9922 18.0675C72.1318 18.0675 73.2367 17.6944 74.1501 17.0264L74.0805 17.4255C74.0457 17.625 74.1849 17.8246 74.385 17.8593C74.4024 17.8593 74.4285 17.8593 74.4459 17.8593H75.6377C75.8203 17.8593 75.9769 17.7291 76.003 17.547L76.7947 13.0705C77.073 11.7259 76.8208 10.5287 76.0378 9.53104C75.2462 8.53339 74.1588 7.99552 72.8017 7.95215L72.8104 7.96082ZM73.5411 15.222C72.7843 15.89 71.984 16.1936 71.0966 16.1589C70.3572 16.1589 69.6699 15.7859 69.2437 15.1873C68.7826 14.5627 68.6434 13.8513 68.8087 13.0011C68.974 12.1249 69.4438 11.3442 70.1397 10.7803C70.7922 10.1904 71.636 9.86937 72.5146 9.8607C73.315 9.8607 73.9326 10.147 74.3937 10.7282C74.8634 11.3181 75.0287 12.0122 74.8982 12.8623C74.7503 13.7906 74.2719 14.6234 73.5498 15.222H73.5411Z" fill="#182229"/>
<path d="M86.7551 9.53961C85.9809 8.53328 84.9022 8.00409 83.5451 7.96072C82.1793 7.91734 80.8831 8.39448 79.7174 9.39213C78.5604 10.3811 77.847 11.587 77.5947 12.975C77.3512 14.3283 77.6208 15.5255 78.3864 16.5145C79.1606 17.5121 80.2393 18.0327 81.5877 18.0674C81.6486 18.0674 81.7008 18.0674 81.7617 18.0674C83.0666 18.0674 84.3019 17.5902 85.4154 16.6359C86.5811 15.647 87.2945 14.4498 87.538 13.0878C87.7729 11.7344 87.5119 10.5373 86.7377 9.53961H86.7551ZM81.84 16.1588C81.1006 16.1588 80.4046 15.8031 79.9784 15.2045C79.526 14.5799 79.3868 13.8599 79.5521 13.0097C79.7174 12.1335 80.1871 11.3354 80.8831 10.7802C81.5181 10.1989 82.3533 9.86927 83.2232 9.86927H83.2667C84.067 9.86927 84.676 10.1556 85.137 10.7368C85.6068 11.3267 85.7721 12.0294 85.6503 12.8796C85.5111 13.7818 85.0674 14.5539 84.3019 15.2392C83.5451 15.9159 82.7447 16.2109 81.8574 16.1675L81.84 16.1588Z" fill="#182229"/>
<path d="M35.9612 7.97816C34.5954 7.93478 33.2992 8.41192 32.1335 9.40957C30.9678 10.3985 30.2545 11.5957 30.0109 12.9577L28.8452 19.5769C28.8104 19.7765 28.9496 19.976 29.1497 20.0107C29.1671 20.0107 29.1932 20.0107 29.2106 20.0107H30.3763C30.5589 20.0107 30.7155 19.8806 30.7416 19.6984L31.2288 16.9657C31.9595 17.6597 32.8904 18.0327 34.0213 18.0848C35.3958 18.1282 36.6832 17.651 37.849 16.6534C39.006 15.6644 39.7193 14.4586 39.9716 13.0705C40.2152 11.7172 39.9455 10.52 39.1799 9.53102C38.4057 8.53337 37.327 8.00418 35.9699 7.96948L35.9612 7.97816ZM34.2909 16.1762C33.4819 16.1762 32.8556 15.89 32.3945 15.3087C31.9247 14.7188 31.7594 14.0161 31.8899 13.1746C32.0291 12.2724 32.4728 11.5003 33.247 10.815C33.9517 10.1903 34.6998 9.87803 35.5175 9.87803C35.5784 9.87803 35.6393 9.87803 35.7002 9.87803C36.4397 9.87803 37.1356 10.2337 37.5706 10.8323C38.0316 11.4569 38.1708 12.177 38.0142 13.0185C37.8403 13.8947 37.3618 14.6841 36.6659 15.248C35.9351 15.8639 35.1609 16.1676 34.2996 16.1676L34.2909 16.1762Z" fill="#182229"/>
<path d="M62.3372 8.03887C61.5021 8.08225 60.7018 8.35986 60.0232 8.84567L60.4408 6.48601C60.4756 6.28648 60.3451 6.08695 60.1363 6.05225C60.1189 6.05225 60.0928 6.05225 60.0667 6.05225H58.8749C58.6922 6.05225 58.5357 6.18237 58.5096 6.36455L56.5522 17.4341C56.5174 17.6337 56.6566 17.8332 56.8567 17.8679C56.8741 17.8679 56.9002 17.8679 56.9176 17.8679H58.1094C58.2921 17.8679 58.4487 17.7378 58.4748 17.5556L59.4143 12.255C59.5187 11.5957 59.8753 11.0058 60.3973 10.5894C60.9106 10.1556 61.563 9.91272 62.2329 9.91272C62.8157 9.86935 63.3899 10.1209 63.7639 10.572C64.1554 11.0232 64.3033 11.6391 64.1728 12.2203L63.2507 17.4255C63.2159 17.625 63.3551 17.8245 63.5551 17.8592C63.5725 17.8592 63.5986 17.8592 63.6247 17.8592H64.8165C64.9992 17.8592 65.1558 17.7291 65.1819 17.5469L66.0779 12.4719C66.3041 11.214 66.0431 10.1296 65.3037 9.26208C64.5643 8.38588 63.5551 7.96947 62.3198 8.0302L62.3372 8.03887Z" fill="#182229"/>
<path d="M54.5691 10.0255H56.3264C56.5091 10.0255 56.6657 9.89537 56.6918 9.71319L56.8919 8.60276C56.9267 8.40323 56.7875 8.2037 56.5874 8.169C56.57 8.169 56.5439 8.169 56.5178 8.169H54.891L55.1868 6.48601C55.2216 6.28648 55.0824 6.08695 54.8823 6.05225C54.8649 6.05225 54.8388 6.05225 54.8214 6.05225H53.6296C53.4469 6.05225 53.2904 6.18237 53.2643 6.36455L52.9424 8.17768H52.4552C52.2725 8.17768 52.1159 8.30781 52.0898 8.48998L51.8898 9.60041C51.855 9.79995 51.9942 9.99948 52.1942 10.0342C52.2116 10.0342 52.2377 10.0342 52.2638 10.0342H52.6205L51.768 14.8489C51.594 15.8206 51.7419 16.584 52.2029 17.1305C52.7249 17.7465 53.6383 18.0588 54.9171 18.0588C55.0998 18.0588 55.2564 17.9286 55.2825 17.7465L55.4565 16.7575C55.4913 16.5579 55.3521 16.3584 55.152 16.3237C55.1346 16.3237 55.1085 16.3237 55.0824 16.3237C54.4996 16.3237 54.0994 16.1936 53.8906 15.9507C53.6905 15.7078 53.6296 15.3087 53.7253 14.7709L54.5604 10.0342L54.5691 10.0255Z" fill="#182229"/>
</g>
<defs>
<clipPath id="clip0_1620_353">
<rect width="86.993" height="24.5162" fill="white" transform="translate(0.650391 0.769043)"/>
</clipPath>
</defs>
</svg>
