<svg width="63" height="16" viewBox="0 0 63 16" fill="none" xmlns="http://www.w3.org/2000/svg">
<g clip-path="url(#clip0_1620_363)">
<path d="M55.7658 8.0318L51.5489 15.9134H46.0391L50.2792 8.01388L46.0507 0.120361H51.5489L55.7774 8.01388L55.7658 8.02583V8.0318Z" fill="#EB2127"/>
<path d="M57.7 8.01986L55.2305 3.41032L56.9894 0.120361H62.4993L58.265 8.01388L62.4993 15.9134H57.0011L55.2305 12.6115L57.6884 8.02583L57.7 8.01388V8.01986Z" fill="#EB2127"/>
<path d="M7.37657 0.108398C11.7798 0.108398 14.2668 2.25792 14.2668 6.10318C14.2668 8.45571 13.364 10.1216 11.7565 11.0769L14.791 15.3819V15.9253H9.81115L6.99798 11.9487H5.49529V15.9134H0.8125V0.108398H7.37657ZM7.66778 8.09148C8.94332 8.09148 9.64807 7.36304 9.64807 6.09124C9.64807 4.81943 8.85013 4.15069 7.42316 4.15069H5.48947V8.09148H7.66778ZM16.084 15.9134V0.108398H27.6745V4.15069H20.7144V6.17483H26.6203V9.96037H20.7144V11.8531H27.8725V15.9193H16.084V15.9134ZM35.6714 0.108398C41.1346 0.108398 44.2157 2.95652 44.2157 8.01983C44.2157 13.0832 41.1346 15.9313 35.6714 15.9313H29.7072V0.108398H35.6714ZM35.6714 11.7875C38.0943 11.7875 39.4805 10.438 39.4805 8.00192C39.4805 5.5658 38.0943 4.19249 35.6714 4.19249H34.3958V11.7875H35.6714Z" fill="#010101"/>
</g>
<defs>
<clipPath id="clip0_1620_363">
<rect width="61.6859" height="15.8169" fill="white" transform="translate(0.8125 0.108398)"/>
</clipPath>
</defs>
</svg>
