<svg width="104" height="22" viewBox="0 0 104 22" fill="none" xmlns="http://www.w3.org/2000/svg">
<g clip-path="url(#clip0_1620_132)">
<path d="M8.42697 6.61724L6.2729 7.96252C6.2729 7.96252 2.91476 3.59452 0.904297 2.43747L24.4223 0.128906C24.4223 0.128906 6.70371 2.63123 5.31185 3.49487L8.42697 6.61724Z" fill="#3D3D3D"/>
<path d="M25.8525 0.128906C25.8525 0.128906 17.8934 2.25478 12.0222 13.7035L9.74665 8.65453L7.83008 10.0939C7.83008 10.0939 11.4257 16.6542 11.6522 20.0811C11.6522 20.0811 16.5679 5.82004 25.8525 0.128906Z" fill="#349574"/>
<path d="M2.29688 13.2826C2.29688 13.2826 8.37245 5.75904 22.4126 0.97583C15.028 3.84908 8.2178 8.01778 2.29688 13.2826Z" fill="#3D3D3D"/>
<path d="M73.2535 18.2044C72.9829 17.7172 72.4471 17.4459 71.8948 17.5179C71.3646 17.5013 70.8399 17.6674 70.4146 17.9884C69.9893 18.3095 69.7021 18.7801 69.6026 19.306C69.5695 19.4555 69.5474 19.6105 69.5474 19.7655C69.5253 20.1531 69.691 20.524 69.9893 20.7676C70.3041 20.989 70.6852 21.0997 71.0663 21.0776C71.696 21.0887 72.3035 20.834 72.7454 20.3801L73.0436 20.596C72.5134 21.1551 71.7733 21.4651 71 21.4596C70.4256 21.5094 69.8622 21.2935 69.4701 20.8783C69.2381 20.596 69.1166 20.2361 69.1276 19.8707C69.1276 19.688 69.1497 19.5053 69.1884 19.3282C69.3099 18.686 69.6579 18.1158 70.1715 17.7172C70.6907 17.3241 71.3259 17.1193 71.9776 17.1359C72.657 17.0584 73.3143 17.3905 73.6567 17.9829L73.259 18.2044H73.2535Z" fill="#3D3D3D"/>
<path d="M78.2402 21.0387C78.0469 21.2103 77.8204 21.3432 77.5719 21.4262C77.362 21.4705 77.1466 21.4871 76.9312 21.4816C76.5832 21.4982 76.2408 21.393 75.9646 21.1882C75.6995 20.9667 75.5504 20.6346 75.5725 20.2913C75.5725 20.1585 75.589 20.0256 75.6167 19.8927C75.705 19.4332 75.9536 19.018 76.3181 18.7302C76.6882 18.4423 77.1466 18.2873 77.6161 18.2983C77.964 18.2817 78.3065 18.3869 78.5882 18.5918C78.8533 18.8132 79.0024 19.1509 78.9803 19.4997C78.9803 19.6325 78.9637 19.7654 78.9361 19.8983C78.8478 20.3522 78.5992 20.7619 78.2402 21.0498M78.3838 19.0014C78.2899 18.8686 78.1574 18.7689 78.0082 18.708C77.8536 18.6693 77.6934 18.6582 77.5332 18.6637C76.7986 18.636 76.1524 19.162 76.0254 19.8872C76.0033 19.9869 75.9867 20.092 75.9867 20.1972C75.9701 20.4574 76.0806 20.7121 76.2794 20.8782C76.4893 21.0387 76.7489 21.1162 77.0085 21.1051C77.3675 21.1107 77.7155 20.9944 77.9917 20.773C78.2678 20.5515 78.4556 20.236 78.5219 19.8872C78.544 19.782 78.5605 19.6713 78.5605 19.5606C78.5661 19.3557 78.5053 19.1564 78.3838 18.9959" fill="#3D3D3D"/>
<path d="M83.4822 21.4208L83.5485 21.0886C83.2226 21.3543 82.8139 21.4927 82.3941 21.4817C82.1235 21.4927 81.8528 21.4318 81.6208 21.2934C81.3889 21.1495 81.2563 20.8893 81.2729 20.618C81.2729 20.5239 81.2839 20.4243 81.306 20.3302L81.7258 18.3648H82.1345L81.7147 20.3246C81.6982 20.3966 81.6926 20.4686 81.6926 20.5405C81.6926 20.917 81.9522 21.0997 82.4714 21.0997C82.7862 21.1107 83.09 21.0111 83.3331 20.8063C83.565 20.5959 83.7252 20.3135 83.7804 20.0035L84.1284 18.3538H84.5371L83.8909 21.4097H83.4767L83.4822 21.4208Z" fill="#3D3D3D"/>
<path d="M87.2269 20.1753L86.9673 21.4099H86.5586L87.2048 18.3539H87.6135L87.5252 18.7747C87.9228 18.437 88.431 18.2598 88.9502 18.2875L88.8728 18.6639C87.9891 18.6639 87.4368 19.1677 87.2214 20.1753" fill="#3D3D3D"/>
<path d="M90.7402 21.4152L91.403 18.2929H91.8117L91.149 21.4152H90.7402ZM91.6792 17.8832C91.5908 17.8832 91.5356 17.8334 91.519 17.7282L91.6184 17.2798C91.6626 17.1912 91.7455 17.1358 91.8449 17.1248C91.9112 17.1248 91.9719 17.169 92.0327 17.2632L91.9333 17.7503C91.8725 17.8278 91.7786 17.8721 91.6847 17.8887" fill="#3D3D3D"/>
<path d="M94.2909 20.0478C94.2798 20.1198 94.2743 20.1973 94.2743 20.2748C94.2743 20.834 94.6057 21.1108 95.263 21.1108C95.7987 21.1329 96.3069 20.8561 96.572 20.3911H96.9973C96.6659 21.0886 95.9478 21.5205 95.1801 21.4817C94.8487 21.5038 94.5173 21.4097 94.2412 21.2215C93.9816 21.0111 93.8435 20.69 93.8656 20.3579C93.8656 20.2029 93.8877 20.0478 93.9208 19.8984C94.0976 18.9572 94.926 18.2818 95.8816 18.2929C96.2185 18.2763 96.5499 18.3704 96.8316 18.5531C97.1022 18.7524 97.2513 19.0735 97.2348 19.4112C97.2348 19.5385 97.2182 19.6603 97.1906 19.7876L97.1409 20.0423L94.2909 20.0534V20.0478ZM95.8042 18.6638C95.4894 18.6583 95.1801 18.7524 94.9205 18.9295C94.6665 19.1122 94.4731 19.3724 94.3737 19.6714H96.7598C96.7708 19.616 96.7708 19.5662 96.7708 19.5108C96.7819 19.2672 96.6824 19.0292 96.4891 18.8742C96.2903 18.7302 96.0473 18.6583 95.7987 18.6693" fill="#3D3D3D"/>
<path d="M99.9417 20.1753L99.6822 21.4099H99.2734L99.9197 18.3539H100.328L100.24 18.7747C100.638 18.437 101.146 18.2598 101.665 18.2875L101.588 18.6639C100.704 18.6639 100.152 19.1677 99.9362 20.1753" fill="#3D3D3D"/>
<path d="M26.3066 6.33491C26.2293 6.33491 26.1575 6.35706 26.0967 6.40688C26.0415 6.45117 26.0029 6.51207 25.9752 6.5785C25.9752 6.58958 25.9752 6.59511 25.9642 6.60618C25.9531 6.62833 25.9476 6.64494 25.9476 6.66708C25.9421 6.69476 25.931 6.73905 25.92 6.79441C25.909 6.84977 25.8924 6.91621 25.8703 6.99925C25.8482 7.08229 25.8261 7.18194 25.7985 7.30374C25.7709 7.42553 25.7322 7.56947 25.6936 7.73002C25.6715 7.82967 25.6991 7.93485 25.7654 8.01789C25.8261 8.0954 25.92 8.13969 26.0194 8.13969H30.2392C30.9738 8.11754 31.6697 8.45525 32.106 9.04761C32.57 9.63998 32.7247 10.4095 32.5369 11.1347C32.5369 11.1458 32.5369 11.1513 32.5369 11.1624C32.5369 11.1735 32.5313 11.1956 32.5258 11.2178C32.5203 11.2399 32.5092 11.2842 32.4982 11.3285C32.4872 11.3728 32.4706 11.4392 32.4485 11.5167C32.4264 11.5942 32.4043 11.6883 32.3822 11.7991C32.3601 11.9098 32.327 12.0427 32.2883 12.1921L32.1558 12.7125C32.106 12.9118 32.0508 13.1333 31.9956 13.3824C31.8575 13.9305 31.5372 14.4232 31.0953 14.772C30.6534 15.1263 30.0956 15.32 29.5267 15.309H21.043C21.043 15.309 21.043 15.2868 21.043 15.2757C21.043 15.2591 21.054 15.237 21.0595 15.2093C21.0651 15.1816 21.0816 15.1318 21.0927 15.0764L21.1479 14.8495C21.17 14.7554 21.1976 14.6446 21.2252 14.5118C21.2529 14.3789 21.2915 14.2183 21.3357 14.0412C21.3799 13.8585 21.4296 13.6481 21.4848 13.4101C21.5401 13.172 21.6063 12.9063 21.6781 12.6129H29.1401C29.2947 12.6129 29.4383 12.5132 29.477 12.3582C29.477 12.3471 29.477 12.3416 29.477 12.3305C29.477 12.3195 29.4825 12.2973 29.488 12.2696C29.4935 12.242 29.5046 12.1977 29.5156 12.1423C29.5267 12.0869 29.5488 12.0205 29.5654 11.9375C29.5819 11.8544 29.6095 11.7548 29.6372 11.633C29.6648 11.5112 29.6979 11.3672 29.731 11.2067C29.7752 11.1126 29.7587 11.0074 29.7034 10.9244C29.6482 10.8413 29.5543 10.797 29.4549 10.797H25.202C24.4729 10.8192 23.7715 10.487 23.3296 9.90571C22.8601 9.31335 22.6999 8.53829 22.8933 7.80752C22.8933 7.79645 22.8933 7.79091 22.8933 7.77984C22.8933 7.76877 22.9043 7.74662 22.9098 7.71894C22.9154 7.69126 22.9264 7.65251 22.9374 7.60269C22.9485 7.55286 22.9651 7.49196 22.9816 7.41446C22.9982 7.33695 23.0203 7.24837 23.0534 7.13765C23.0866 7.02693 23.1142 6.89406 23.1473 6.74459C23.1805 6.59511 23.2247 6.41796 23.2744 6.21866C23.3241 6.01936 23.3793 5.79791 23.4456 5.54878C23.9372 4.29209 24.7546 3.6665 25.909 3.6665H34.4369C34.4369 3.6665 34.4369 3.68865 34.4369 3.69972C34.4369 3.71633 34.4258 3.73847 34.4203 3.77169C34.4148 3.80491 34.3982 3.8492 34.3872 3.90456C34.3761 3.95992 34.354 4.03742 34.3264 4.126C34.2988 4.21458 34.2712 4.3253 34.238 4.45817C34.2049 4.59104 34.1662 4.74051 34.122 4.9232L33.9619 5.54325C33.9011 5.77577 33.8348 6.0415 33.7575 6.34045H26.2956L26.3066 6.33491Z" fill="#3D3D3D"/>
<path d="M35.2761 3.66642H38.1261C38.1261 3.66642 38.1261 3.6775 38.1261 3.68303C38.1261 3.68857 38.1206 3.69964 38.1151 3.71625C38.1096 3.73286 38.104 3.755 38.0985 3.77161L38.0764 3.86019C38.0654 3.89341 38.0543 3.93769 38.0433 3.98752C38.0322 4.03734 38.0157 4.09271 37.9991 4.15914C37.9825 4.22557 37.966 4.29201 37.9494 4.36951C37.9328 4.44702 37.9052 4.5356 37.8831 4.64078C37.861 4.74597 37.8279 4.85115 37.7947 4.97295C37.7616 5.09474 37.7285 5.22761 37.6953 5.37155C37.6622 5.51549 37.6235 5.67604 37.5793 5.84212C37.5352 6.0082 37.491 6.19643 37.4357 6.39573H39.4793L38.916 8.97556H36.8447C36.8447 8.97556 36.8447 8.98664 36.8447 8.99217C36.8447 9.00325 36.8392 9.01432 36.8337 9.02539C36.8337 9.042 36.8282 9.06414 36.8227 9.09182C36.8171 9.1195 36.8116 9.15272 36.8006 9.19147C36.7895 9.23023 36.784 9.28005 36.7729 9.33541C36.7619 9.39077 36.7453 9.45721 36.7232 9.52918C36.7011 9.60115 36.679 9.68972 36.657 9.78384C36.6349 9.87795 36.6072 9.98868 36.5796 10.1105C36.552 10.2323 36.5189 10.3651 36.4857 10.5146C36.4526 10.6641 36.4139 10.8246 36.3697 11.0073C36.3256 11.19 36.2814 11.3782 36.2261 11.5886C36.1709 11.799 36.1157 12.026 36.0549 12.2751C36.0328 12.419 36.0715 12.563 36.1599 12.6737C36.2482 12.79 36.3863 12.8564 36.5354 12.8453H38.0157L37.4413 15.3034H35.4915C34.7625 15.3255 34.0665 14.9878 33.6413 14.3899C33.1884 13.7865 33.0282 13.0059 33.2104 12.2696L35.2927 3.66089L35.2761 3.66642Z" fill="#3D3D3D"/>
<path d="M41.108 8.16188C42.1961 7.07127 43.6542 6.44568 45.1897 6.4014H47.3051C47.9955 6.37371 48.6528 6.6782 49.0891 7.21521C49.5255 7.73006 49.6801 8.43315 49.4978 9.08088C49.4537 9.2525 49.4095 9.40751 49.3763 9.53484C49.3432 9.66217 49.3156 9.76736 49.288 9.85593C49.2659 9.94451 49.2438 10.0165 49.2272 10.0718C49.2106 10.1161 49.1996 10.1604 49.1941 10.2047C49.1941 10.2269 49.183 10.249 49.1775 10.2711C49.1775 10.2767 49.172 10.2878 49.1664 10.2988C49.0449 10.8303 48.7356 11.3064 48.2938 11.633C47.8519 11.9652 47.3162 12.1424 46.7638 12.1313H44.1458C43.8089 12.0981 43.5217 11.86 43.4333 11.5278C43.3394 11.1735 43.4002 10.7971 43.6045 10.4926C43.8752 10.1051 44.3005 9.85593 44.7699 9.81165H46.4269C46.46 9.67324 46.4932 9.55145 46.5208 9.4518C46.5484 9.35215 46.5705 9.26357 46.5926 9.19714C46.6147 9.1307 46.6313 9.06981 46.6423 9.02552C46.6534 8.98123 46.6644 8.94247 46.6699 8.91479C46.6755 8.88711 46.681 8.87051 46.681 8.86497C46.681 8.85943 46.681 8.84836 46.681 8.84282H44.8914C44.317 8.83175 43.7592 9.00337 43.2897 9.33554C42.7926 9.73414 42.4557 10.2878 42.3287 10.9133C42.2292 11.4005 42.3176 11.9098 42.5717 12.3361C42.9141 12.8122 43.4885 13.0613 44.0685 12.9894H48.4981C48.4318 13.2496 48.3766 13.4821 48.3214 13.6869C48.2662 13.8918 48.2164 14.0689 48.1723 14.2239C48.1281 14.3789 48.0894 14.5118 48.0618 14.6281C48.0342 14.7443 48.0066 14.8384 47.9845 14.9215C47.9624 14.999 47.9458 15.0654 47.9348 15.1152C47.9237 15.1651 47.9127 15.2038 47.9071 15.2315C47.9016 15.2592 47.8906 15.2813 47.8906 15.2924C47.8906 15.3035 47.8906 15.309 47.8906 15.3201H42.8313C41.6272 15.3201 40.7656 15.0322 40.2409 14.4565C39.7217 13.8973 39.4345 13.161 39.4345 12.3915C39.3848 10.8137 39.9923 9.28018 41.1135 8.17295" fill="#3D3D3D"/>
<path d="M52.9496 15.2702C51.4915 15.1151 50.5304 14.484 50.061 13.3713C49.5915 12.264 49.713 10.8855 50.4255 9.25239C51.6406 7.22617 53.524 6.27949 56.0758 6.42343H60.1243L59.9918 6.88293H60.0028L59.2903 9.69528L57.8708 15.3089H55.0374L52.9496 15.2757V15.2702ZM56.4679 9.69528H56.4569L56.6889 8.75967H55.3301C54.6894 8.74307 54.0653 8.9479 53.5627 9.3465C53.1319 9.70081 52.8115 10.1714 52.6458 10.7084C52.3421 12.1035 52.8226 12.7955 54.0929 12.7734H55.6726L56.4679 9.70081V9.69528Z" fill="#3D3D3D"/>
<path d="M68.7843 12.1535H65.9951L66.7849 8.82625H65.034C63.7913 8.81518 62.9739 9.50166 62.5707 10.8857C62.4602 11.3729 62.5431 11.8877 62.8027 12.3195C63.134 12.779 63.6809 13.0282 64.2442 12.9783H68.5965L67.989 15.309H63.0402C62.1178 15.3755 61.2064 15.0544 60.5326 14.4233C60.0134 13.8586 59.7152 13.1223 59.6875 12.3583C59.682 10.7805 60.2841 9.2636 61.3721 8.12316C62.416 7.03254 63.841 6.39589 65.3433 6.35714H67.4146L68.1271 3.67212H70.9163L68.7843 12.159V12.1535Z" fill="#3D3D3D"/>
<path d="M71.3083 5.59307C71.7557 4.30869 72.5731 3.6665 73.7717 3.6665H81.7528L81.1452 6.32384H76.5002V6.33491H74.2577C74.1859 6.33491 74.1196 6.36813 74.0644 6.41242C73.9981 6.46778 73.9484 6.53975 73.9208 6.62279L73.5728 8.16183H78.251L77.6766 10.8192H72.9708L71.9656 15.309H69.1211L71.3083 5.59861V5.59307Z" fill="#349574"/>
<path d="M81.809 15.2702C80.3509 15.1151 79.3898 14.484 78.9203 13.3713C78.4509 12.2585 78.5724 10.8855 79.2849 9.25239C80.5 7.22617 82.3834 6.27949 84.9352 6.42343H88.9837L88.8567 6.88293H88.8677L88.1552 9.69528L86.7357 15.3089H83.9023L81.809 15.2757V15.2702ZM85.3273 9.69528H85.3163L85.5482 8.75967H84.1895C83.5488 8.74307 82.9247 8.9479 82.4221 9.3465C81.9913 9.70081 81.6709 10.1714 81.5052 10.7084C81.2014 12.1035 81.682 12.7955 82.9523 12.7734H84.532L85.3273 9.70081V9.69528Z" fill="#349574"/>
<path d="M98.8583 6.41242L99.5211 3.6665H102.371C102.371 3.6665 102.371 3.67758 102.371 3.68311C102.371 3.68865 102.366 3.69972 102.36 3.71633C102.355 3.73294 102.349 3.75508 102.343 3.77169L102.321 3.86027C102.31 3.89348 102.299 3.93777 102.288 3.9876C102.277 4.03742 102.261 4.09279 102.244 4.15922C102.228 4.22565 102.211 4.29209 102.194 4.36959C102.178 4.4471 102.15 4.53567 102.123 4.64086C102.095 4.74605 102.067 4.85123 102.034 4.97303C102.001 5.09482 101.968 5.22769 101.935 5.37163C101.902 5.51557 101.863 5.67612 101.819 5.8422C101.775 6.00828 101.73 6.19651 101.675 6.39581H103.719L103.155 8.97564H101.084C101.084 8.97564 101.084 8.98672 101.084 8.99225C101.084 9.00332 101.079 9.0144 101.073 9.02547C101.073 9.04208 101.068 9.06422 101.062 9.0919L101.04 9.19155L101.012 9.33549C101.001 9.39085 100.985 9.45729 100.963 9.52926C100.941 9.60676 100.918 9.6898 100.896 9.78392C100.874 9.87803 100.847 9.98875 100.819 10.1105C100.791 10.2323 100.758 10.3652 100.725 10.5147C100.692 10.6642 100.653 10.8247 100.609 11.0074C100.565 11.1846 100.521 11.3783 100.466 11.5887C100.416 11.7991 100.355 12.026 100.294 12.2752C100.272 12.4191 100.311 12.5631 100.399 12.6738C100.488 12.79 100.626 12.8565 100.769 12.8454H102.25L101.675 15.3034H99.7255C98.9964 15.3256 98.3005 14.9879 97.8752 14.39C97.4223 13.7865 97.2621 13.0059 97.4444 12.2696L98.3005 8.72652H92.7496C92.3906 8.70991 92.1862 8.83724 92.1365 9.11958C92.0923 9.29674 92.1918 9.48497 92.3685 9.54586C92.6005 9.62337 92.849 9.65105 93.092 9.62337L94.2464 9.59015C95.329 9.62337 96.0415 9.93339 96.3894 10.5091C96.7595 11.2178 96.8589 12.0371 96.6711 12.8177C96.3121 14.545 95.1246 15.3754 93.1086 15.309H87.9609L88.4525 12.8952H93.0202C93.5063 12.934 93.799 12.7845 93.8984 12.4413C93.9095 12.0648 93.6278 11.8932 93.0589 11.9264H91.7775C91.0043 11.9596 90.2531 11.6441 89.7339 11.0683C89.2423 10.4095 89.0766 9.56247 89.2976 8.76527C89.8112 7.07675 91.1092 6.29063 93.1859 6.41242H98.8694H98.8583Z" fill="#349574"/>
<mask id="mask0_1620_132" style="mask-type:luminance" maskUnits="userSpaceOnUse" x="21" y="19" width="47" height="2">
<path d="M67.9568 19.4609H21.0312V20.0865H67.9568V19.4609Z" fill="white"/>
</mask>
<g mask="url(#mask0_1620_132)">
<path d="M21.2743 19.4609H21.0312V20.0865H21.2743V19.4609Z" fill="#349574"/>
<path d="M21.5165 19.4609H21.2734V20.0865H21.5165V19.4609Z" fill="#349574"/>
<path d="M21.7665 19.4609H21.5234V20.0865H21.7665V19.4609Z" fill="#359574"/>
<path d="M22.0028 19.4609H21.7598V20.0865H22.0028V19.4609Z" fill="#359574"/>
<path d="M22.2528 19.4609H22.0098V20.0865H22.2528V19.4609Z" fill="#359574"/>
<path d="M22.495 19.4609H22.252V20.0865H22.495V19.4609Z" fill="#369574"/>
<path d="M22.7333 19.4609H22.4902V20.0865H22.7333V19.4609Z" fill="#369574"/>
<path d="M22.9813 19.4609H22.7383V20.0865H22.9813V19.4609Z" fill="#379675"/>
<path d="M23.2235 19.4609H22.9805V20.0865H23.2235V19.4609Z" fill="#379675"/>
<path d="M23.4676 19.4609H23.2246V20.0865H23.4676V19.4609Z" fill="#389675"/>
<path d="M23.7098 19.4609H23.4668V20.0865H23.7098V19.4609Z" fill="#389675"/>
<path d="M23.954 19.4609H23.7109V20.0865H23.954V19.4609Z" fill="#399675"/>
<path d="M24.1961 19.4609H23.9531V20.0865H24.1961V19.4609Z" fill="#399676"/>
<path d="M24.4383 19.4609H24.1953V20.0865H24.4383V19.4609Z" fill="#3A9776"/>
<path d="M24.6825 19.4609H24.4395V20.0865H24.6825V19.4609Z" fill="#3B9776"/>
<path d="M24.9247 19.4609H24.6816V20.0865H24.9247V19.4609Z" fill="#3B9776"/>
<path d="M25.1688 19.4609H24.9258V20.0865H25.1688V19.4609Z" fill="#3C9777"/>
<path d="M25.411 19.4609H25.168V20.0865H25.411V19.4609Z" fill="#3C9777"/>
<path d="M25.6551 19.4609H25.4121V20.0865H25.6551V19.4609Z" fill="#3D9777"/>
<path d="M25.8973 19.4609H25.6543V20.0865H25.8973V19.4609Z" fill="#3E9878"/>
<path d="M26.1395 19.4609H25.8965V20.0865H26.1395V19.4609Z" fill="#3E9878"/>
<path d="M26.3836 19.4609H26.1406V20.0865H26.3836V19.4609Z" fill="#3F9878"/>
<path d="M26.6258 19.4609H26.3828V20.0865H26.6258V19.4609Z" fill="#409879"/>
<path d="M26.87 19.4609H26.627V20.0865H26.87V19.4609Z" fill="#419979"/>
<path d="M27.1122 19.4609H26.8691V20.0865H27.1122V19.4609Z" fill="#419979"/>
<path d="M27.3563 19.4609H27.1133V20.0865H27.3563V19.4609Z" fill="#429979"/>
<path d="M27.5985 19.4609H27.3555V20.0865H27.5985V19.4609Z" fill="#43997A"/>
<path d="M27.8407 19.4609H27.5977V20.0865H27.8407V19.4609Z" fill="#439A7A"/>
<path d="M28.0848 19.4609H27.8418V20.0865H28.0848V19.4609Z" fill="#449A7A"/>
<path d="M28.327 19.4609H28.084V20.0865H28.327V19.4609Z" fill="#449A7B"/>
<path d="M28.5711 19.4609H28.3281V20.0865H28.5711V19.4609Z" fill="#459A7B"/>
<path d="M28.8133 19.4609H28.5703V20.0865H28.8133V19.4609Z" fill="#469A7B"/>
<path d="M29.0575 19.4609H28.8145V20.0865H29.0575V19.4609Z" fill="#479B7C"/>
<path d="M29.2997 19.4609H29.0566V20.0865H29.2997V19.4609Z" fill="#489B7C"/>
<path d="M29.5419 19.4609H29.2988V20.0865H29.5419V19.4609Z" fill="#489B7C"/>
<path d="M29.786 19.4609H29.543V20.0865H29.786V19.4609Z" fill="#499C7D"/>
<path d="M30.0282 19.4609H29.7852V20.0865H30.0282V19.4609Z" fill="#4A9C7D"/>
<path d="M30.2723 19.4609H30.0293V20.0865H30.2723V19.4609Z" fill="#4A9C7E"/>
<path d="M30.5145 19.4609H30.2715V20.0865H30.5145V19.4609Z" fill="#4B9D7E"/>
<path d="M30.7586 19.4609H30.5156V20.0865H30.7586V19.4609Z" fill="#4C9D7F"/>
<path d="M31.0008 19.4609H30.7578V20.0865H31.0008V19.4609Z" fill="#4D9D7F"/>
<path d="M31.243 19.4609H31V20.0865H31.243V19.4609Z" fill="#4D9E80"/>
<path d="M31.4872 19.4609H31.2441V20.0865H31.4872V19.4609Z" fill="#4E9E80"/>
<path d="M31.7294 19.4609H31.4863V20.0865H31.7294V19.4609Z" fill="#4F9E80"/>
<path d="M31.9735 19.4609H31.7305V20.0865H31.9735V19.4609Z" fill="#509F81"/>
<path d="M32.2157 19.4609H31.9727V20.0865H32.2157V19.4609Z" fill="#519F81"/>
<path d="M32.4598 19.4609H32.2168V20.0865H32.4598V19.4609Z" fill="#519F82"/>
<path d="M32.702 19.4609H32.459V20.0865H32.702V19.4609Z" fill="#52A082"/>
<path d="M32.9442 19.4609H32.7012V20.0865H32.9442V19.4609Z" fill="#53A083"/>
<path d="M33.1883 19.4609H32.9453V20.0865H33.1883V19.4609Z" fill="#54A083"/>
<path d="M33.4305 19.4609H33.1875V20.0865H33.4305V19.4609Z" fill="#55A183"/>
<path d="M33.6747 19.4609H33.4316V20.0865H33.6747V19.4609Z" fill="#55A184"/>
<path d="M33.9169 19.4609H33.6738V20.0865H33.9169V19.4609Z" fill="#56A184"/>
<path d="M34.161 19.4609H33.918V20.0865H34.161V19.4609Z" fill="#57A285"/>
<path d="M34.4032 19.4609H34.1602V20.0865H34.4032V19.4609Z" fill="#58A285"/>
<path d="M34.6454 19.4609H34.4023V20.0865H34.6454V19.4609Z" fill="#59A286"/>
<path d="M34.8954 19.4609H34.6523V20.0865H34.8954V19.4609Z" fill="#59A386"/>
<path d="M35.1317 19.4609H34.8887V20.0865H35.1317V19.4609Z" fill="#5AA387"/>
<path d="M35.3758 19.4609H35.1328V20.0865H35.3758V19.4609Z" fill="#5BA387"/>
<path d="M35.6239 19.4609H35.3809V20.0865H35.6239V19.4609Z" fill="#5CA488"/>
<path d="M35.8661 19.4609H35.623V20.0865H35.8661V19.4609Z" fill="#5DA488"/>
<path d="M36.1102 19.4609H35.8672V20.0865H36.1102V19.4609Z" fill="#5EA489"/>
<path d="M36.3524 19.4609H36.1094V20.0865H36.3524V19.4609Z" fill="#5FA589"/>
<path d="M36.5965 19.4609H36.3535V20.0865H36.5965V19.4609Z" fill="#60A58A"/>
<path d="M36.8387 19.4609H36.5957V20.0865H36.8387V19.4609Z" fill="#61A68A"/>
<path d="M37.0809 19.4609H36.8379V20.0865H37.0809V19.4609Z" fill="#61A68B"/>
<path d="M37.3251 19.4609H37.082V20.0865H37.3251V19.4609Z" fill="#62A68B"/>
<path d="M37.5672 19.4609H37.3242V20.0865H37.5672V19.4609Z" fill="#63A78C"/>
<path d="M37.8114 19.4609H37.5684V20.0865H37.8114V19.4609Z" fill="#64A78C"/>
<path d="M38.0536 19.4609H37.8105V20.0865H38.0536V19.4609Z" fill="#65A88D"/>
<path d="M38.2977 19.4609H38.0547V20.0865H38.2977V19.4609Z" fill="#66A88D"/>
<path d="M38.5399 19.4609H38.2969V20.0865H38.5399V19.4609Z" fill="#66A88E"/>
<path d="M38.7821 19.4609H38.5391V20.0865H38.7821V19.4609Z" fill="#67A98F"/>
<path d="M39.0262 19.4609H38.7832V20.0865H39.0262V19.4609Z" fill="#68A98F"/>
<path d="M39.2684 19.4609H39.0254V20.0865H39.2684V19.4609Z" fill="#69AA90"/>
<path d="M39.5126 19.4609H39.2695V20.0865H39.5126V19.4609Z" fill="#6AAA90"/>
<path d="M39.7547 19.4609H39.5117V20.0865H39.7547V19.4609Z" fill="#6BAA91"/>
<path d="M39.9989 19.4609H39.7559V20.0865H39.9989V19.4609Z" fill="#6CAB92"/>
<path d="M40.2411 19.4609H39.998V20.0865H40.2411V19.4609Z" fill="#6DAB92"/>
<path d="M40.4833 19.4609H40.2402V20.0865H40.4833V19.4609Z" fill="#6EAC93"/>
<path d="M40.7274 19.4609H40.4844V20.0865H40.7274V19.4609Z" fill="#6EAC93"/>
<path d="M40.9696 19.4609H40.7266V20.0865H40.9696V19.4609Z" fill="#6FAD94"/>
<path d="M41.2137 19.4609H40.9707V20.0865H41.2137V19.4609Z" fill="#70AD95"/>
<path d="M41.4559 19.4609H41.2129V20.0865H41.4559V19.4609Z" fill="#71AE95"/>
<path d="M41.7001 19.4609H41.457V20.0865H41.7001V19.4609Z" fill="#72AE96"/>
<path d="M41.9422 19.4609H41.6992V20.0865H41.9422V19.4609Z" fill="#73AE96"/>
<path d="M42.1844 19.4609H41.9414V20.0865H42.1844V19.4609Z" fill="#74AF97"/>
<path d="M42.4286 19.4609H42.1855V20.0865H42.4286V19.4609Z" fill="#75AF98"/>
<path d="M42.6708 19.4609H42.4277V20.0865H42.6708V19.4609Z" fill="#76B098"/>
<path d="M42.9149 19.4609H42.6719V20.0865H42.9149V19.4609Z" fill="#77B099"/>
<path d="M43.1571 19.4609H42.9141V20.0865H43.1571V19.4609Z" fill="#78B19A"/>
<path d="M43.4012 19.4609H43.1582V20.0865H43.4012V19.4609Z" fill="#79B19A"/>
<path d="M43.6434 19.4609H43.4004V20.0865H43.6434V19.4609Z" fill="#7AB29B"/>
<path d="M43.8856 19.4609H43.6426V20.0865H43.8856V19.4609Z" fill="#7BB39C"/>
<path d="M44.1297 19.4609H43.8867V20.0865H44.1297V19.4609Z" fill="#7CB39C"/>
<path d="M44.3719 19.4609H44.1289V20.0865H44.3719V19.4609Z" fill="#7DB39D"/>
<path d="M44.6161 19.4609H44.373V20.0865H44.6161V19.4609Z" fill="#7EB49E"/>
<path d="M44.8583 19.4609H44.6152V20.0865H44.8583V19.4609Z" fill="#7FB59F"/>
<path d="M45.1024 19.4609H44.8594V20.0865H45.1024V19.4609Z" fill="#80B59F"/>
<path d="M45.3446 19.4609H45.1016V20.0865H45.3446V19.4609Z" fill="#81B5A0"/>
<path d="M45.5868 19.4609H45.3438V20.0865H45.5868V19.4609Z" fill="#82B6A1"/>
<path d="M45.8309 19.4609H45.5879V20.0865H45.8309V19.4609Z" fill="#83B7A1"/>
<path d="M46.0731 19.4609H45.8301V20.0865H46.0731V19.4609Z" fill="#84B7A2"/>
<path d="M46.3172 19.4609H46.0742V20.0865H46.3172V19.4609Z" fill="#85B8A3"/>
<path d="M46.5594 19.4609H46.3164V20.0865H46.5594V19.4609Z" fill="#86B8A4"/>
<path d="M46.8036 19.4609H46.5605V20.0865H46.8036V19.4609Z" fill="#87B9A4"/>
<path d="M47.0458 19.4609H46.8027V20.0865H47.0458V19.4609Z" fill="#88B9A5"/>
<path d="M47.2879 19.4609H47.0449V20.0865H47.2879V19.4609Z" fill="#89BAA6"/>
<path d="M47.5321 19.4609H47.2891V20.0865H47.5321V19.4609Z" fill="#8ABAA6"/>
<path d="M47.7801 19.4609H47.5371V20.0865H47.7801V19.4609Z" fill="#8BBBA7"/>
<path d="M48.0243 19.4609H47.7812V20.0865H48.0243V19.4609Z" fill="#8DBBA8"/>
<path d="M48.2665 19.4609H48.0234V20.0865H48.2665V19.4609Z" fill="#8EBCA9"/>
<path d="M48.5047 19.4609H48.2617V20.0865H48.5047V19.4609Z" fill="#8EBDAA"/>
<path d="M48.7469 19.4609H48.5039V20.0865H48.7469V19.4609Z" fill="#90BDAA"/>
<path d="M48.995 19.4609H48.752V20.0865H48.995V19.4609Z" fill="#91BEAB"/>
<path d="M49.2391 19.4609H48.9961V20.0865H49.2391V19.4609Z" fill="#92BEAC"/>
<path d="M49.4813 19.4609H49.2383V20.0865H49.4813V19.4609Z" fill="#93BFAD"/>
<path d="M49.7254 19.4609H49.4824V20.0865H49.7254V19.4609Z" fill="#94C0AD"/>
<path d="M49.9676 19.4609H49.7246V20.0865H49.9676V19.4609Z" fill="#95C0AE"/>
<path d="M50.2098 19.4609H49.9668V20.0865H50.2098V19.4609Z" fill="#96C1AF"/>
<path d="M50.454 19.4609H50.2109V20.0865H50.454V19.4609Z" fill="#97C1B0"/>
<path d="M50.6961 19.4609H50.4531V20.0865H50.6961V19.4609Z" fill="#99C2B1"/>
<path d="M50.9403 19.4609H50.6973V20.0865H50.9403V19.4609Z" fill="#9AC3B1"/>
<path d="M51.1825 19.4609H50.9395V20.0865H51.1825V19.4609Z" fill="#9BC3B2"/>
<path d="M51.4266 19.4609H51.1836V20.0865H51.4266V19.4609Z" fill="#9CC4B3"/>
<path d="M51.6688 19.4609H51.4258V20.0865H51.6688V19.4609Z" fill="#9DC4B4"/>
<path d="M51.911 19.4609H51.668V20.0865H51.911V19.4609Z" fill="#9FC5B5"/>
<path d="M52.1551 19.4609H51.9121V20.0865H52.1551V19.4609Z" fill="#A0C6B5"/>
<path d="M52.3973 19.4609H52.1543V20.0865H52.3973V19.4609Z" fill="#A1C6B6"/>
<path d="M52.6415 19.4609H52.3984V20.0865H52.6415V19.4609Z" fill="#A2C7B7"/>
<path d="M52.8836 19.4609H52.6406V20.0865H52.8836V19.4609Z" fill="#A3C8B8"/>
<path d="M53.1278 19.4609H52.8848V20.0865H53.1278V19.4609Z" fill="#A4C8B9"/>
<path d="M53.37 19.4609H53.127V20.0865H53.37V19.4609Z" fill="#A6C9BA"/>
<path d="M53.6122 19.4609H53.3691V20.0865H53.6122V19.4609Z" fill="#A7CABB"/>
<path d="M53.8563 19.4609H53.6133V20.0865H53.8563V19.4609Z" fill="#A8CABB"/>
<path d="M54.0985 19.4609H53.8555V20.0865H54.0985V19.4609Z" fill="#AACBBD"/>
<path d="M54.3426 19.4609H54.0996V20.0865H54.3426V19.4609Z" fill="#ABCCBE"/>
<path d="M54.5848 19.4609H54.3418V20.0865H54.5848V19.4609Z" fill="#ACCDBE"/>
<path d="M54.829 19.4609H54.5859V20.0865H54.829V19.4609Z" fill="#ADCDBF"/>
<path d="M55.0711 19.4609H54.8281V20.0865H55.0711V19.4609Z" fill="#AECEC0"/>
<path d="M55.3133 19.4609H55.0703V20.0865H55.3133V19.4609Z" fill="#B0CFC1"/>
<path d="M55.5575 19.4609H55.3145V20.0865H55.5575V19.4609Z" fill="#B1CFC2"/>
<path d="M55.7997 19.4609H55.5566V20.0865H55.7997V19.4609Z" fill="#B2D0C3"/>
<path d="M56.0438 19.4609H55.8008V20.0865H56.0438V19.4609Z" fill="#B4D1C4"/>
<path d="M56.286 19.4609H56.043V20.0865H56.286V19.4609Z" fill="#B5D1C5"/>
<path d="M56.5301 19.4609H56.2871V20.0865H56.5301V19.4609Z" fill="#B6D2C6"/>
<path d="M56.7723 19.4609H56.5293V20.0865H56.7723V19.4609Z" fill="#B8D3C7"/>
<path d="M57.0145 19.4609H56.7715V20.0865H57.0145V19.4609Z" fill="#B9D4C7"/>
<path d="M57.2586 19.4609H57.0156V20.0865H57.2586V19.4609Z" fill="#BAD4C8"/>
<path d="M57.5008 19.4609H57.2578V20.0865H57.5008V19.4609Z" fill="#BCD5C9"/>
<path d="M57.745 19.4609H57.502V20.0865H57.745V19.4609Z" fill="#BDD6CA"/>
<path d="M57.9872 19.4609H57.7441V20.0865H57.9872V19.4609Z" fill="#BED7CB"/>
<path d="M58.2313 19.4609H57.9883V20.0865H58.2313V19.4609Z" fill="#BFD7CC"/>
<path d="M58.4735 19.4609H58.2305V20.0865H58.4735V19.4609Z" fill="#C1D8CD"/>
<path d="M58.7157 19.4609H58.4727V20.0865H58.7157V19.4609Z" fill="#C2D9CE"/>
<path d="M58.9598 19.4609H58.7168V20.0865H58.9598V19.4609Z" fill="#C3DACF"/>
<path d="M59.202 19.4609H58.959V20.0865H59.202V19.4609Z" fill="#C5DAD0"/>
<path d="M59.4461 19.4609H59.2031V20.0865H59.4461V19.4609Z" fill="#C6DBD1"/>
<path d="M59.6883 19.4609H59.4453V20.0865H59.6883V19.4609Z" fill="#C7DCD2"/>
<path d="M59.9325 19.4609H59.6895V20.0865H59.9325V19.4609Z" fill="#C9DDD3"/>
<path d="M60.1747 19.4609H59.9316V20.0865H60.1747V19.4609Z" fill="#CADED4"/>
<path d="M60.4169 19.4609H60.1738V20.0865H60.4169V19.4609Z" fill="#CBDED5"/>
<path d="M60.661 19.4609H60.418V20.0865H60.661V19.4609Z" fill="#CDDFD6"/>
<path d="M60.9032 19.4609H60.6602V20.0865H60.9032V19.4609Z" fill="#CEE0D7"/>
<path d="M61.1512 19.4609H60.9082V20.0865H61.1512V19.4609Z" fill="#D0E1D8"/>
<path d="M61.3895 19.4609H61.1465V20.0865H61.3895V19.4609Z" fill="#D1E2D9"/>
<path d="M61.6376 19.4609H61.3945V20.0865H61.6376V19.4609Z" fill="#D2E2DA"/>
<path d="M61.8817 19.4609H61.6387V20.0865H61.8817V19.4609Z" fill="#D4E3DC"/>
<path d="M62.1239 19.4609H61.8809V20.0865H62.1239V19.4609Z" fill="#D6E4DD"/>
<path d="M62.368 19.4609H62.125V20.0865H62.368V19.4609Z" fill="#D7E5DE"/>
<path d="M62.6102 19.4609H62.3672V20.0865H62.6102V19.4609Z" fill="#D8E6DF"/>
<path d="M62.8524 19.4609H62.6094V20.0865H62.8524V19.4609Z" fill="#DAE7E0"/>
<path d="M63.0965 19.4609H62.8535V20.0865H63.0965V19.4609Z" fill="#DBE8E1"/>
<path d="M63.3387 19.4609H63.0957V20.0865H63.3387V19.4609Z" fill="#DDE9E2"/>
<path d="M63.5829 19.4609H63.3398V20.0865H63.5829V19.4609Z" fill="#DFEAE4"/>
<path d="M63.8251 19.4609H63.582V20.0865H63.8251V19.4609Z" fill="#E1EBE5"/>
<path d="M64.0692 19.4609H63.8262V20.0865H64.0692V19.4609Z" fill="#E2ECE6"/>
<path d="M64.3114 19.4609H64.0684V20.0865H64.3114V19.4609Z" fill="#E3EDE7"/>
<path d="M64.5536 19.4609H64.3105V20.0865H64.5536V19.4609Z" fill="#E5EEE9"/>
<path d="M64.7977 19.4609H64.5547V20.0865H64.7977V19.4609Z" fill="#E6EFEA"/>
<path d="M65.0399 19.4609H64.7969V20.0865H65.0399V19.4609Z" fill="#E8F0EB"/>
<path d="M65.284 19.4609H65.041V20.0865H65.284V19.4609Z" fill="#EAF1EC"/>
<path d="M65.5262 19.4609H65.2832V20.0865H65.5262V19.4609Z" fill="#EBF2EE"/>
<path d="M65.7704 19.4609H65.5273V20.0865H65.7704V19.4609Z" fill="#EDF3EF"/>
<path d="M66.0126 19.4609H65.7695V20.0865H66.0126V19.4609Z" fill="#EFF4F0"/>
<path d="M66.2547 19.4609H66.0117V20.0865H66.2547V19.4609Z" fill="#F0F5F2"/>
<path d="M66.4989 19.4609H66.2559V20.0865H66.4989V19.4609Z" fill="#F2F6F3"/>
<path d="M66.7411 19.4609H66.498V20.0865H66.7411V19.4609Z" fill="#F3F7F5"/>
<path d="M66.9852 19.4609H66.7422V20.0865H66.9852V19.4609Z" fill="#F5F9F6"/>
<path d="M67.2274 19.4609H66.9844V20.0865H67.2274V19.4609Z" fill="#F7FAF8"/>
<path d="M67.4715 19.4609H67.2285V20.0865H67.4715V19.4609Z" fill="#F9FBFA"/>
<path d="M67.7137 19.4609H67.4707V20.0865H67.7137V19.4609Z" fill="#FCFDFC"/>
<path d="M67.9559 19.4609H67.7129V20.0865H67.9559V19.4609Z" fill="white"/>
</g>
</g>
<defs>
<clipPath id="clip0_1620_132">
<rect width="102.81" height="21.3528" fill="white" transform="translate(0.904297 0.128906)"/>
</clipPath>
</defs>
</svg>
